<svg id="Layer_1" data-name="Layer 1" xmlns="http://www.w3.org/2000/svg" xmlns:xlink="http://www.w3.org/1999/xlink" viewBox="0 0 792 612"><defs><style>.cls-1{fill:url(#linear-gradient);}.cls-2{fill:#ffaf74;}.cls-3{fill:#91e56e;stroke:#377224;stroke-width:6px;}.cls-3,.cls-4{stroke-miterlimit:10;}.cls-4{fill:none;stroke-width:13px;stroke:url(#linear-gradient-2);}.cls-5{fill:#fff;}</style><linearGradient id="linear-gradient" x1="433.36" y1="9.33" x2="296.16" y2="246.98" gradientTransform="matrix(1, 0, 0, -1, 0, 614)" gradientUnits="userSpaceOnUse"><stop offset="0" stop-color="gray"/><stop offset="1" stop-color="#b3b3b3"/></linearGradient><linearGradient id="linear-gradient-2" x1="559.78" y1="54.52" x2="265.05" y2="565" gradientTransform="matrix(1, 0, 0, -1, 0, 614)" gradientUnits="userSpaceOnUse"><stop offset="0" stop-color="#666"/><stop offset="1" stop-color="#e6e6e6" stop-opacity="0.8"/></linearGradient></defs><title>3</title><polygon class="cls-1" points="272 559 517.67 556 404.55 532 403.82 319.68 378.16 319.68 379.17 534 272 559"/><path id="drink1" class="cls-2" d="M309,271.07H475s-24.5,53.59-83,53.54C344.29,324.57,308.22,282.46,309,271.07Z"/><path id="drink2" class="cls-2" d="M276.49,219.52h232S478,255.63,475,271.07H309S280,220.52,276.49,219.52Z"/><path id="drink3" class="cls-2" d="M211,164.52H584.5s-27.5,40.5-76,55h-232S211.49,194.52,211,164.52Z"/><path class="cls-3" d="M281.45,66.37S130.38,16.53,150.72,171.11Z"/><path class="cls-4" d="M605.56,101.68S608,176.35,527.8,212.11c0,0-35,19.44-37.93,28s-32.5,78.35-81.56,80.16l-1,203.55a8.81,8.81,0,0,0,7.28,8.72l131.1,23.18a2.16,2.16,0,0,1-.43,4.28l-295,2.39a2.42,2.42,0,0,1-.57-4.78L377,531.08a6.46,6.46,0,0,0,5.14-6.36l-1-203.22s-56.38-.86-87.57-81.43c0,0-20.42-23.15-35-27.82S191.34,180.35,189.41,103Z"/><g id="salt"><circle class="cls-5" cx="296.01" cy="98.49" r="6.19"/><circle class="cls-5" cx="315.21" cy="101.68" r="6.19"/><path class="cls-5" d="M266,107.52c7.72,0,7.73-12,0-12S258.27,107.52,266,107.52Z"/><path class="cls-5" d="M342.49,111.52c7.72,0,7.73-12,0-12S334.76,111.52,342.49,111.52Z"/><path class="cls-5" d="M328,106c7.72,0,7.73-12,0-12S320.27,106,328,106Z"/><path class="cls-5" d="M359,111c7.72,0,7.73-12,0-12S351.27,111,359,111Z"/><path class="cls-5" d="M350.49,107c7.72,0,7.73-12,0-12S342.76,107,350.49,107Z"/><path class="cls-5" d="M393.49,108.52c7.72,0,7.73-12,0-12S385.76,108.52,393.49,108.52Z"/><path class="cls-5" d="M375,108c7.72,0,7.73-12,0-12S367.27,108,375,108Z"/><path class="cls-5" d="M387.49,111c7.72,0,7.73-12,0-12S379.76,111,387.49,111Z"/><path class="cls-5" d="M383,101.52c7.72,0,7.73-12,0-12S375.27,101.52,383,101.52Z"/><path class="cls-5" d="M362,102c7.72,0,7.73-12,0-12S354.27,102,362,102Z"/><path class="cls-5" d="M370,112c7.72,0,7.73-12,0-12S362.27,112,370,112Z"/><path class="cls-5" d="M403,113.52c7.72,0,7.73-12,0-12S395.27,113.52,403,113.52Z"/><path class="cls-5" d="M401.49,102.52c7.72,0,7.73-12,0-12S393.76,102.52,401.49,102.52Z"/><path class="cls-5" d="M401.49,102.52c7.72,0,7.73-12,0-12S393.76,102.52,401.49,102.52Z"/><path class="cls-5" d="M418.49,105c7.72,0,7.73-12,0-12S410.76,105,418.49,105Z"/><path class="cls-5" d="M415.49,111c7.72,0,7.73-12,0-12S407.76,111,415.49,111Z"/><path class="cls-5" d="M409,103c7.72,0,7.73-12,0-12S401.27,103,409,103Z"/><path class="cls-5" d="M424,111.52c7.72,0,7.73-12,0-12S416.27,111.52,424,111.52Z"/><path class="cls-5" d="M435,104c6.43,0,6.45-10,0-10S428.55,104,435,104Z"/><path class="cls-5" d="M435,109c6.43,0,6.45-10,0-10S428.55,109,435,109Z"/><path class="cls-5" d="M446,106.52c5.15,0,5.16-8,0-8S440.84,106.52,446,106.52Z"/><path class="cls-5" d="M453,106c5.15,0,5.16-8,0-8S447.84,106,453,106Z"/><path class="cls-5" d="M437.49,98c5.15,0,5.16-8,0-8S432.33,98,437.49,98Z"/><path class="cls-5" d="M446.49,111.52c5.15,0,5.16-8,0-8S441.33,111.52,446.49,111.52Z"/><path class="cls-5" d="M442.49,99c5.15,0,5.16-8,0-8S437.33,99,442.49,99Z"/><path class="cls-5" d="M450.49,101.52c5.15,0,5.16-8,0-8S445.33,101.52,450.49,101.52Z"/><path class="cls-5" d="M457.49,101.52c5.15,0,5.16-8,0-8S452.33,101.52,457.49,101.52Z"/><path class="cls-5" d="M457.49,102c5.15,0,5.16-8,0-8S452.33,102,457.49,102Z"/><path class="cls-5" d="M466.49,109.52c5.15,0,5.16-8,0-8S461.33,109.52,466.49,109.52Z"/><path class="cls-5" d="M458,109.52c5.15,0,5.16-8,0-8S452.84,109.52,458,109.52Z"/><path class="cls-5" d="M465,104.52c5.15,0,5.16-8,0-8S459.84,104.52,465,104.52Z"/><path class="cls-5" d="M462,97.52c5.15,0,5.16-8,0-8S456.84,97.52,462,97.52Z"/><path class="cls-5" d="M475.49,104.52c5.15,0,5.16-8,0-8S470.33,104.52,475.49,104.52Z"/><path class="cls-5" d="M475,110.52c5.15,0,5.16-8,0-8S469.84,110.52,475,110.52Z"/><path class="cls-5" d="M470,103.52c5.15,0,5.16-8,0-8S464.84,103.52,470,103.52Z"/><path class="cls-5" d="M479,106.52c5.15,0,5.16-8,0-8S473.84,106.52,479,106.52Z"/><path class="cls-5" d="M479,98.52c5.15,0,5.16-8,0-8S473.84,98.52,479,98.52Z"/><path class="cls-5" d="M484.49,110c5.15,0,5.16-8,0-8S479.33,110,484.49,110Z"/><path class="cls-5" d="M484.49,105.52c5.15,0,5.16-8,0-8S479.33,105.52,484.49,105.52Z"/><path class="cls-5" d="M491,104c5.15,0,5.16-8,0-8S485.84,104,491,104Z"/><path class="cls-5" d="M491.49,108.52c5.15,0,5.16-8,0-8S486.33,108.52,491.49,108.52Z"/><path class="cls-5" d="M498.49,110c5.15,0,5.16-8,0-8S493.33,110,498.49,110Z"/><path class="cls-5" d="M498.49,108c5.15,0,5.16-8,0-8S493.33,108,498.49,108Z"/><path class="cls-5" d="M494.49,100.52c5.15,0,5.16-8,0-8S489.33,100.52,494.49,100.52Z"/><path class="cls-5" d="M505.49,102.52c5.15,0,5.16-8,0-8S500.33,102.52,505.49,102.52Z"/><path class="cls-5" d="M506.49,108c5.15,0,5.16-8,0-8S501.33,108,506.49,108Z"/><path class="cls-5" d="M512.49,105c5.15,0,5.16-8,0-8S507.33,105,512.49,105Z"/><path class="cls-5" d="M516,105.52c5.15,0,5.16-8,0-8S510.84,105.52,516,105.52Z"/><path class="cls-5" d="M531,107.52c5.15,0,5.16-8,0-8S525.84,107.52,531,107.52Z"/><path class="cls-5" d="M520.49,111c5.15,0,5.16-8,0-8S515.33,111,520.49,111Z"/><path class="cls-5" d="M514.49,109.52c5.15,0,5.16-8,0-8S509.33,109.52,514.49,109.52Z"/><path class="cls-5" d="M523.49,103c5.15,0,5.16-8,0-8S518.33,103,523.49,103Z"/><path class="cls-5" d="M533.49,101c5.15,0,5.16-8,0-8S528.33,101,533.49,101Z"/><path class="cls-5" d="M513,99c5.15,0,5.16-8,0-8S507.84,99,513,99Z"/><path class="cls-5" d="M548,104c5.15,0,5.16-8,0-8S542.84,104,548,104Z"/><path class="cls-5" d="M539.49,109c5.15,0,5.16-8,0-8S534.33,109,539.49,109Z"/><path class="cls-5" d="M542,102c5.15,0,5.16-8,0-8S536.84,102,542,102Z"/><path class="cls-5" d="M549,109c5.15,0,5.16-8,0-8S543.84,109,549,109Z"/><path class="cls-5" d="M555.49,103.52c5.15,0,5.16-8,0-8S550.33,103.52,555.49,103.52Z"/><path class="cls-5" d="M564.49,103.52c5.15,0,5.16-8,0-8S559.33,103.52,564.49,103.52Z"/><path class="cls-5" d="M574.49,101c5.15,0,5.16-8,0-8S569.33,101,574.49,101Z"/><path class="cls-5" d="M592.49,102.52c5.15,0,5.16-8,0-8S587.33,102.52,592.49,102.52Z"/><path class="cls-5" d="M607,102c5.15,0,5.16-8,0-8S601.84,102,607,102Z"/><path class="cls-5" d="M601.49,102.52c5.15,0,5.16-8,0-8S596.33,102.52,601.49,102.52Z"/><path class="cls-5" d="M584.49,101c5.15,0,5.16-8,0-8S579.33,101,584.49,101Z"/><path class="cls-5" d="M605.49,108.52c5.15,0,5.16-8,0-8S600.33,108.52,605.49,108.52Z"/><path class="cls-5" d="M598,107.52c5.15,0,5.16-8,0-8S592.84,107.52,598,107.52Z"/><path class="cls-5" d="M588.49,107.52c5.15,0,5.16-8,0-8S583.33,107.52,588.49,107.52Z"/><path class="cls-5" d="M584,105c5.15,0,5.16-8,0-8S578.84,105,584,105Z"/><path class="cls-5" d="M572.49,108.52c5.15,0,5.16-8,0-8S567.33,108.52,572.49,108.52Z"/><path class="cls-5" d="M579,109c5.15,0,5.16-8,0-8S573.84,109,579,109Z"/><path class="cls-5" d="M564.49,109.52c5.15,0,5.16-8,0-8S559.33,109.52,564.49,109.52Z"/><path class="cls-5" d="M557,109c5.15,0,5.16-8,0-8S551.84,109,557,109Z"/><path class="cls-5" d="M559,101.52c5.15,0,5.16-8,0-8S553.84,101.52,559,101.52Z"/><path class="cls-5" d="M574.49,101.52c5.15,0,5.16-8,0-8S569.33,101.52,574.49,101.52Z"/><path class="cls-5" d="M579.49,102c5.15,0,5.16-8,0-8S574.33,102,579.49,102Z"/><path class="cls-5" d="M569.49,99.52c5.15,0,5.16-8,0-8S564.33,99.52,569.49,99.52Z"/><path class="cls-5" d="M188,102c5.15,0,5.16-8,0-8S182.84,102,188,102Z"/><path class="cls-5" d="M195,110.52c5.15,0,5.16-8,0-8S189.84,110.52,195,110.52Z"/><path class="cls-5" d="M202.49,112c5.15,0,5.16-8,0-8S197.33,112,202.49,112Z"/><path class="cls-5" d="M192.49,106.52c5.15,0,5.16-8,0-8S187.33,106.52,192.49,106.52Z"/><path class="cls-5" d="M205.49,101.52c5.15,0,5.16-8,0-8S200.33,101.52,205.49,101.52Z"/><path class="cls-5" d="M198,107.52c5.15,0,5.16-8,0-8S192.84,107.52,198,107.52Z"/><path class="cls-5" d="M198,103.52c5.15,0,5.16-8,0-8S192.84,103.52,198,103.52Z"/><path class="cls-5" d="M207.49,112c5.15,0,5.16-8,0-8S202.33,112,207.49,112Z"/><path class="cls-5" d="M221.49,112c5.15,0,5.16-8,0-8S216.33,112,221.49,112Z"/><path class="cls-5" d="M236.49,112c5.15,0,5.16-8,0-8S231.33,112,236.49,112Z"/><path class="cls-5" d="M247.49,111c5.15,0,5.16-8,0-8S242.33,111,247.49,111Z"/><path class="cls-5" d="M257,112c5.15,0,5.16-8,0-8S251.84,112,257,112Z"/><path class="cls-5" d="M277.49,111.52c5.15,0,5.16-8,0-8S272.33,111.52,277.49,111.52Z"/><path class="cls-5" d="M291.49,114c5.15,0,5.16-8,0-8S286.33,114,291.49,114Z"/><path class="cls-5" d="M305,112c5.15,0,5.16-8,0-8S299.84,112,305,112Z"/><path class="cls-5" d="M305.49,103c5.15,0,5.16-8,0-8S300.33,103,305.49,103Z"/><path class="cls-5" d="M281,106.52c5.15,0,5.16-8,0-8S275.84,106.52,281,106.52Z"/><path class="cls-5" d="M287.49,103c5.15,0,5.16-8,0-8S282.33,103,287.49,103Z"/><path class="cls-5" d="M287,110c5.15,0,5.16-8,0-8S281.84,110,287,110Z"/><path class="cls-5" d="M254.49,103.52c5.15,0,5.16-8,0-8S249.33,103.52,254.49,103.52Z"/><path class="cls-5" d="M252,104.52c5.15,0,5.16-8,0-8S246.84,104.52,252,104.52Z"/><path class="cls-5" d="M242,104.52c5.15,0,5.16-8,0-8S236.84,104.52,242,104.52Z"/><path class="cls-5" d="M230.49,102.52c5.15,0,5.16-8,0-8S225.33,102.52,230.49,102.52Z"/><path class="cls-5" d="M228.49,108.52c5.15,0,5.16-8,0-8S223.33,108.52,228.49,108.52Z"/><path class="cls-5" d="M214,110c5.15,0,5.16-8,0-8S208.84,110,214,110Z"/><path class="cls-5" d="M215,103.52c5.15,0,5.16-8,0-8S209.84,103.52,215,103.52Z"/><path class="cls-5" d="M222.49,102c5.15,0,5.16-8,0-8S217.33,102,222.49,102Z"/><path class="cls-5" d="M236.49,107c5.15,0,5.16-8,0-8S231.33,107,236.49,107Z"/><path class="cls-5" d="M204,108c5.15,0,5.16-8,0-8S198.84,108,204,108Z"/><path class="cls-5" d="M211,105.52c5.15,0,5.16-8,0-8S205.84,105.52,211,105.52Z"/><path class="cls-5" d="M211,102.52c5.15,0,5.16-8,0-8S205.84,102.52,211,102.52Z"/><path class="cls-5" d="M231,110c5.15,0,5.16-8,0-8S225.84,110,231,110Z"/><path class="cls-5" d="M276.49,101c5.15,0,5.16-8,0-8S271.33,101,276.49,101Z"/><path class="cls-5" d="M271.49,110c5.15,0,5.16-8,0-8S266.33,110,271.49,110Z"/><path class="cls-5" d="M256,100c5.15,0,5.16-8,0-8S250.84,100,256,100Z"/><path class="cls-5" d="M245,99c5.15,0,5.16-8,0-8S239.84,99,245,99Z"/><path class="cls-5" d="M261.49,110c5.15,0,5.16-8,0-8S256.33,110,261.49,110Z"/><path class="cls-5" d="M318.49,106.52c5.15,0,5.16-8,0-8S313.33,106.52,318.49,106.52Z"/><path class="cls-5" d="M325.49,111c5.15,0,5.16-8,0-8S320.33,111,325.49,111Z"/><path class="cls-5" d="M332.49,110c5.15,0,5.16-8,0-8S327.33,110,332.49,110Z"/><path class="cls-5" d="M338.49,103c5.15,0,5.16-8,0-8S333.33,103,338.49,103Z"/><path class="cls-5" d="M345.49,101c5.15,0,5.16-8,0-8S340.33,101,345.49,101Z"/><path class="cls-5" d="M298,110.52c5.15,0,5.16-8,0-8S292.84,110.52,298,110.52Z"/><path class="cls-5" d="M426.49,102c5.15,0,5.16-8,0-8S421.33,102,426.49,102Z"/><path class="cls-5" d="M442,110.52c5.15,0,5.16-8,0-8S436.84,110.52,442,110.52Z"/><path class="cls-5" d="M381,110c5.15,0,5.16-8,0-8S375.84,110,381,110Z"/><path class="cls-5" d="M368.49,98c5.15,0,5.16-8,0-8S363.33,98,368.49,98Z"/><path class="cls-5" d="M519,98.52c5.15,0,5.16-8,0-8S513.84,98.52,519,98.52Z"/><path class="cls-5" d="M499.49,100c5.15,0,5.16-8,0-8S494.33,100,499.49,100Z"/><path class="cls-5" d="M527.49,111.52c5.15,0,5.16-8,0-8S522.33,111.52,527.49,111.52Z"/><path class="cls-5" d="M530.49,98.52c5.15,0,5.16-8,0-8S525.33,98.52,530.49,98.52Z"/><path class="cls-5" d="M549.49,99c5.15,0,5.16-8,0-8S544.33,99,549.49,99Z"/><path class="cls-5" d="M544.49,111c5.15,0,5.16-8,0-8S539.33,111,544.49,111Z"/><path class="cls-5" d="M314.49,111c5.15,0,5.16-8,0-8S309.33,111,314.49,111Z"/><path class="cls-5" d="M321,100.52c5.15,0,5.16-8,0-8S315.84,100.52,321,100.52Z"/><path class="cls-5" d="M305,105.52c5.15,0,5.16-8,0-8S299.84,105.52,305,105.52Z"/><path class="cls-5" d="M595,110c5.15,0,5.16-8,0-8S589.84,110,595,110Z"/><path class="cls-5" d="M611,106.52c5.15,0,5.16-8,0-8S605.84,106.52,611,106.52Z"/><path class="cls-5" d="M597,100.52c5.15,0,5.16-8,0-8S591.84,100.52,597,100.52Z"/></g></svg>